<?xml version="1.0" encoding="utf-8"?>
<!-- Generator: Adobe Illustrator 25.0.0, SVG Export Plug-In . SVG Version: 6.00 Build 0)  -->
<svg version="1.1" id="Layer_1" xmlns="http://www.w3.org/2000/svg" xmlns:xlink="http://www.w3.org/1999/xlink" x="0px" y="0px"
	 viewBox="0 0 24 24" style="enable-background:new 0 0 24 24;" xml:space="preserve">
<style type="text/css">
	.st0{fill:#F7941D;}
</style>
<g>
	<path class="st0" d="M3.5,12.5c0.1-0.1,0-0.2,0-0.3c-0.1-0.1-0.2-0.1-0.3-0.1c0,0,0,0,0,0c-0.3,0.2-0.7,0.3-1,0.6
		c-0.3,0.3-0.7,0.5-1,0.7c-0.3,0.2-0.6,0.3-0.9,0.4C0.5,15.3,1,16.7,1.7,18c0.1-0.3,0.2-0.5,0.2-0.8c0-0.4,0.1-0.7,0-1.1
		c-0.2-0.6-0.1-1.2-0.1-1.8c0-0.2,0.2-0.3,0.3-0.4c0.1,0,0.2-0.1,0.2-0.2c0.1-0.3,0.4-0.4,0.6-0.6C3.2,13,3.4,12.8,3.5,12.5z"/>
	<path class="st0" d="M12,0.1C5.5,0.1,0.3,5.3,0.1,11.7c0.2-0.1,0.4,0,0.6,0c0.1,0,0.2,0,0.3-0.1c0.2-0.3,0.6-0.5,0.9-0.7
		c0.2-0.1,0.3-0.2,0.3-0.4c0-0.2,0.2-0.4,0.4-0.4c0.4,0,0.5-0.2,0.7-0.5c0.1-0.1,0.2-0.3,0.4-0.3c0.1,0,0.1,0,0.2-0.1
		C4.1,9,4.4,8.9,4.7,8.7c0.4-0.3,0.9-0.4,1.1-0.8c0.1-0.1,0.2-0.1,0.4-0.1c0.4,0,0.7-0.2,1.1-0.3c0.4,0,0.4-0.1,0.7-0.4
		c0.2-0.2,0.4-0.3,0.6-0.2c0.4,0,0.8-0.1,1.3-0.1c0.3,0,0.6,0.1,0.9,0.1c0.4,0,0.8,0.1,1.2,0.1c0.4,0,0.7,0.1,0.9,0.3
		c0.1,0.1,0.3,0.2,0.5,0.2c0.3,0,0.6,0.1,0.9,0.2c0,0,0.1,0,0.1,0.1c0.3,0.5,0.7,0.6,1.3,0.6c0.1,0,0.1,0,0.2,0.1
		c0.2,0.1,0.5,0.2,0.8,0.2c0.5,0,1,0,1.4,0c0.2,0,0.4,0,0.6,0.2c0.1,0.1,0.2,0.2,0.4,0.2c0.2,0,0.4,0.2,0.6,0.4
		c0.1,0.2,0.3,0.3,0.5,0.3c0,0,0.1,0,0.1,0.1c0.3,0.3,0.7,0.3,1,0.5c0.1,0.1,0.2,0.1,0.3,0.1c0.2,0,0.4,0.1,0.5,0.3
		c0,0.3-0.2,0.6-0.4,0.7c-0.3,0.1-0.5,0.2-0.8,0.2c-0.1,0-0.2,0.1-0.2,0.2c-0.1,0.3-0.1,0.6-0.2,1c-0.1,0.2-0.2,0.4-0.4,0.5
		c-0.2,0.1-0.4,0.3-0.6,0.4c-0.2,0.1-0.4,0-0.7,0c-0.1,0-0.2,0-0.2,0.1c-0.1,0.5-0.4,0.7-0.7,1c-0.3,0.3-1.3,0-1.4-0.4
		c0-0.1,0-0.3-0.1-0.4c-0.3-0.4-0.6-0.9-1.2-0.8c-0.2,0-0.3-0.2-0.5,0c-0.1,0.1-0.1,0.3-0.2,0.4c0,0.1-0.1,0.1-0.1,0.1
		c-0.2,0-0.3,0.2-0.2,0.4c0.1,0.2,0,0.3-0.2,0.2c-0.5-0.1-0.8,0.1-1,0.5c-0.1,0.1-0.1,0.2,0,0.3c0.2,0.2,0.1,0.4,0.1,0.6
		c-0.1,0.4,0.1,0.7,0.2,1c0,0.1,0.2,0.1,0.3,0.3c0,0.1,0,0.1,0,0.2c-0.1,0.1-0.2,0.2-0.2,0.3c0,0.1-0.2,0.1-0.3,0.1
		c-0.1-0.1-0.3-0.1-0.4,0c-0.2,0-0.3,0.1-0.2,0.3c0,0.2,0,0.4-0.1,0.6c0,0.1-0.2,0.2-0.3,0.2c-0.1,0-0.2-0.1-0.2-0.2
		c-0.1-0.3-0.1-0.3-0.4-0.2c-0.3,0.2-0.4,0.1-0.4-0.3c0-0.2,0-0.4,0.1-0.6c0.1-0.1,0.1-0.3-0.1-0.4c-0.1-0.1-0.2-0.3-0.2-0.4
		c0-0.1,0-0.2-0.1-0.2c-0.2-0.2-0.3-0.4-0.3-0.7c0-0.2-0.1-0.4-0.1-0.5c-0.1-0.2-0.2-0.2-0.3-0.1c-0.1,0-0.1,0.1-0.2,0.1
		c-0.2,0.2-0.4,0.3-0.6,0.4c-0.4,0.1-0.6,0.3-0.9,0.5C8,16,8,16.2,8.1,16.2c0.4,0.2,0.8,0.4,1.3,0.2c0.4-0.2,1.1,0.2,1.1,0.6
		c0,0.2-0.1,0.2-0.2,0.2c-0.1,0-0.3,0-0.4,0c-0.4,0.1-0.7,0-1.1-0.1C8.1,17.1,7.4,17,6.7,17c-0.1,0-0.2,0-0.3,0
		c-0.1,0-0.2,0-0.3-0.1c-0.5-0.6-0.5-1-0.3-1.8c-0.6,0.1-1.2,0.1-1.8,0.2c-0.2,0-0.4,0.2-0.4,0.4c0,0.2,0,0.5,0,0.7
		c0,0.2,0.1,0.4,0.4,0.4c0.1,0,0.2,0,0.2,0.1C4.2,17.1,4,17,3.9,17c-0.4,0-0.5,0.2-0.3,0.6c0.1,0.1,0.2,0.3,0.2,0.4
		c0,0.1-0.1,0.2-0.2,0.2c-0.1,0-0.2,0-0.3,0c-0.2-0.1-0.3,0-0.3,0.2c0,0.4-0.2,0.7-0.6,0.8c0,0,0,0,0,0c2.2,3,5.7,4.7,9.5,4.7
		c6.6,0,11.9-5.3,11.9-11.9S18.6,0.1,12,0.1z M19.2,18.2c-0.1,0.2-0.2-0.3-0.3-0.3c-0.2,0-0.3-0.2-0.4-0.3c-0.1,0-0.1,0-0.2,0
		c-0.2,0.2-0.3-0.1-0.6-0.1c-0.2,0-0.3-0.1-0.4-0.2c-0.2-0.5-0.5-0.9-0.7-1.4c-0.1-0.1-0.7-1.3-0.6-1.4c0.1-0.1,0.2,0.4,1,0.6
		c0.5,0,0.4,0.1,1.3-0.4c0.1-0.3,0.3,1.3,0.3,1.5c0,0.3,0.1,0.5,0.1,0.8c0.1-0.1,0.3,0.3,0.4,0.4C19.2,17.3,19.3,18.1,19.2,18.2
		L19.2,18.2z"/>
</g>
</svg>
