<svg id="Layer_1" data-name="Layer 1" xmlns="http://www.w3.org/2000/svg" viewBox="0 0 499.9182 500"><defs><style>.cls-1{fill:#f7941d;}</style></defs><path class="cls-1" d="M71.074,260.9851c1.3339-2.28.4614-4.2821-.7942-6.107a4.22,4.22,0,0,0-5.8421-1.3325c-7.1512,3.7709-14.6465,6.4175-20.8545,12.48-6.0527,5.9107-14.3337,9.6968-21.9729,13.7882-6.1386,3.2878-12.8482,5.2591-19.1169,8.3915a248.3324,248.3324,0,0,0,30.6782,86.7614c1.9278-5.7185,4.8422-11.1352,4.73-17.2932-.1391-7.6341,2.0861-15.3-.92-22.9067-4.7226-11.9485-3.023-24.4315-2.4307-36.7805.2218-4.6234,3.5554-7.0061,7.2706-8.795,1.6775-.8078,3.6181-1.3651,4.2513-3.1759,2.287-6.54,8.3869-8.9565,13.47-12.2053C64.7005,270.5127,68.1087,266.0542,71.074,260.9851Z" transform="translate(0.3844 0.3448)"/><path class="cls-1" d="M249.5338-.3448C113.6217-.3448,3.0409,108.1107-.3844,243.1972c3.475-1.7246,8.4257-1.0475,12.3528.3721,2.7624.9987,4.0878.4112,5.4513-1.627,4.54-6.7865,11.8909-10.1164,18.6-13.7221,3.9845-2.1415,6.3436-4.1032,7.3415-8.3471,1.0147-4.3152,4.1329-7.4,8.4234-7.45,7.4938-.0868,11.3838-4.9189,15.2979-9.9731,2.2571-2.9145,4.2739-5.8642,8.53-6.054a4.5293,4.5293,0,0,0,3.1711-1.9295c4.1421-7.0434,12.0926-9.0909,17.8354-13.9335,7.4461-6.2791,17.9327-8.2223,23.5635-17.0487,1.5463-2.4238,4.9863-2.8656,7.4728-2.8133,8.3506.1755,15.2563-4.9636,23.5692-5.45,7.8825-.4609,7.7152-1.6317,13.9816-8.7734a15.2071,15.2071,0,0,1,13.3328-5.2235c8.9159,1.0251,17.5147-1.7507,26.5384-1.215,6.6005.3918,13.0982,1.5861,19.4229,1.7845,8.28.26,16.5368,2.0126,24.8677,1.2731,7.6151-.676,13.931,2.0214,19.6082,7.1567,2.9095,2.6318,6.7871,3.6516,10.9893,4.08,6.0712.6187,12.0314,2.3647,18.0157,3.7314.5954.136,1.17.8959,1.5175,1.502,5.9287,10.348,15.5066,12.5793,26.3767,11.7862a6.738,6.738,0,0,1,4.0939,1.211c5.23,3.128,10.8856,3.7379,16.856,3.6169,10.0406-.2037,20.0892.0381,30.1337-.0323,4.5891-.0321,8.6145,1.0132,11.9246,4.4286a13.0509,13.0509,0,0,0,8.0851,3.9843c5.0273.6661,9.0654,3.6984,12.0874,7.8239a18.071,18.071,0,0,0,10.3081,6.7344c1.0488.286,2.3369.4213,3.0466,1.1088,5.8773,5.6938,14.7209,5.7663,20.8155,11.1287,1.8708,1.6461,4.6609,1.8728,7.267,2.0806,4.3365.3457,8.6553,1.211,9.4812,6.4736.8353,5.3222-3.315,13.0722-7.6791,14.5114-5.5337,1.8249-11.0332,3.9552-16.9215,4.3322-2.8382.1817-4.0331,1.5307-4.93,4.1307-2.2522,6.5282-2.4032,13.4972-5.1653,20.0235-1.9463,4.5988-4.2782,8.4452-8.0243,11.3545a124.1291,124.1291,0,0,1-12.693,8.4777c-4.49,2.6727-9.2614.5465-13.8507.0167-2.36-.2724-3.6151-.5912-4.1318,2.4-1.6527,9.5645-8.7175,15.5634-15.7226,20.9394-7.1215,5.4654-26.6665-.8045-29.5819-9.0613-1.0115-2.8647.0688-6.3862-2.0053-9.2336-6.3955-8.78-12.2841-18.3359-25.5522-16.2711-3.4017.5294-6.5489-3.2615-9.948-.6579-2.904,2.2245-2.5378,5.86-3.46,8.95a3.6441,3.6441,0,0,1-2.1639,2.2886c-5.1668.8721-5.8206,3.3746-3.997,7.9957,1.3077,3.314-.3707,5.5021-4.3553,4.7905-10.0672-1.7977-16.6677,3.0075-21.6554,11.1455-1.2826,2.0927-1.9832,4.2336-.2963,6.0391,3.7358,3.9982,3.0189,8.365,1.4942,12.7871-2.5716,7.4578,1.2691,13.9793,3.217,20.6343.6793,2.32,4.86,3.0338,5.6294,6.5042.3577,1.6141.6854,2.7836-.6033,3.8514a13.0672,13.0672,0,0,0-4.11,6.2347c-1.0115,3.0036-3.7826,2.4864-6.0287,1.5155-2.62-1.1322-5.285-1.7952-7.9776-.9827-3.26.9839-5.3561,3.0559-4.6424,6.9089a23.7708,23.7708,0,0,1-1.2336,11.8082,6.4212,6.4212,0,0,1-6.2692,4.48c-2.78.1-3.2914-2.246-3.9761-4.428-1.8946-6.0374-2.8108-6.38-8.4621-3.6791-7.2753,3.4772-8.95,2.3875-9.0569-5.7117-.0537-4.0683.3135-7.9569,2.3021-11.6579a6.77,6.77,0,0,0-1.6391-8.9209A14.41,14.41,0,0,1,221.67,342.45a6.0466,6.0466,0,0,0-2.2227-4.2686c-5.2407-3.6769-6.1857-9.3919-6.2916-14.9616-.0809-4.254-1.5454-7.8525-3.1135-11.4625-1.4811-3.41-4.2427-3.7243-7.1463-1.4149a26.3944,26.3944,0,0,0-3.1944,2.9939,23.8615,23.8615,0,0,1-12.7978,7.7364c-7.3626,1.7352-13.0671,7.023-19.1464,11.2963-2.6831,1.886-2.4693,4.8266.4294,6.2123,8.3946,4.0128,17.0129,7.6394,26.6061,4.1722,9.2643-3.3482,22.9659,3.6183,23.6725,11.9562.3093,3.65-1.2694,5.1407-4.575,5.2115-2.914.0624-5.9418-.66-8.73-.0974-7.8482,1.5849-15.1721-.5693-22.8351-1.5509a364.5639,364.5639,0,0,0-45.14-3.2477c-1.8188-.0055-3.6375.1368-5.4569.1783-2.6612.0606-5.1133-.46-6.7989-2.7674-9.7887-13.4-11.2475-21.2377-6.9107-37.6-12.7147,1.3053-25.3511,2.4835-37.8577,4.7214-5.1862.928-7.8455,3.8138-7.926,9.4077-.0731,5.0792-1.0108,10.1109-.2368,15.2522.7724,5.1316,3.1291,7.9793,8.6162,7.608,1.5522-.1051,3.9033-.6673,3.9725,1.5911.0778,2.5445-2.4846,2.1245-4.2053,2.2556-8.7644.6673-10.3946,4.1886-5.6558,11.65a33.9692,33.9692,0,0,1,4.2963,9.3022c.7475,2.8295-1.234,4.7974-4.1913,5.211a9.2528,9.2528,0,0,1-5.3253-.9605c-4.5805-2.2138-5.8431-.0673-5.9436,4.2376-.1943,8.3342-4.5842,14.1692-12.4391,16.1316-.1085.0271-.2167.0491-.3251.0746a249.5812,249.5812,0,0,0,198.7357,98.3366c138.0712,0,250-111.9289,250-250S387.605-.3448,249.5338-.3448Zm151.5432,380.19c-1.2318,3.7486-3.2248-6.8006-5.618-6.0923-3.6736-.1109-5.2608-4.1614-8.0818-6.4823a3.4528,3.4528,0,0,0-3.5357,0c-4.6584,4.0015-6.3679-2.0326-11.8922-1.5264-3.9386.3609-6.6948-1.74-8.429-4.9669Q355.66,346.1528,348.13,331.352c-1.08-2.1222-14.0232-27.7768-11.8014-30.3185,2.1172-2.4219,3.232,8.234,20.069,11.6014,10.2677.9336,8.4184,1.6837,26.939-8.4184,1.6838-7.1722,6.8111,26.3722,5.997,30.6519-1.0183,5.3534,2.6166,10.31,1.3208,16.0619,2.6745-1.1418,5.4407,6.4152,7.8355,8.68C400.9831,361.968,402.0688,376.8272,401.077,379.8454Z" transform="translate(0.3844 0.3448)"/></svg>